<?xml version="1.0" standalone="no"?><!DOCTYPE svg PUBLIC "-//W3C//DTD SVG 1.1//EN" "http://www.w3.org/Graphics/SVG/1.1/DTD/svg11.dtd"><svg t="1700188494621" class="icon" viewBox="0 0 1024 1024" version="1.1" xmlns="http://www.w3.org/2000/svg" p-id="7763" width="64" height="64" xmlns:xlink="http://www.w3.org/1999/xlink"><path d="M228.7 889.5c-50 0-90.7-40.7-90.7-90.6V514.7l752.6-1.5v285.7c0 50-40.7 90.6-90.7 90.6H228.7z m0 0" fill="#CEE8FA" p-id="7764"></path><path d="M800 99.6H228.7c-70.6 0-128 57.4-128 128v571.3c0 70.6 57.4 128 128 128H800c70.6 0 128-57.4 128-128V227.6c0-70.6-57.4-128-128-128z m53.3 699.2c0 29.4-23.9 53.3-53.3 53.3H228.7c-29.4 0-53.3-23.9-53.3-53.3V227.6c0-29.4 23.9-53.3 53.3-53.3H800c29.4 0 53.3 23.9 53.3 53.3v571.2z" fill="#2197EF" p-id="7765"></path><path d="M517.7 632.6c-9.9 0-19.4-3.9-26.4-10.9L373.7 504c-14.6-14.6-14.6-38.2 0-52.8 14.6-14.6 38.2-14.6 52.8 0l91.2 91.2 137.7-137.7c14.6-14.6 38.2-14.6 52.8 0 14.6 14.6 14.6 38.2 0 52.8l-164 164.2c-7 7-16.5 10.9-26.5 10.9z m0 0" fill="#2197EF" p-id="7766"></path></svg>