<?xml version="1.0" standalone="no"?><!DOCTYPE svg PUBLIC "-//W3C//DTD SVG 1.1//EN" "http://www.w3.org/Graphics/SVG/1.1/DTD/svg11.dtd"><svg t="1700189482244" class="icon" viewBox="0 0 1024 1024" version="1.1" xmlns="http://www.w3.org/2000/svg" p-id="29055" width="64" height="64" xmlns:xlink="http://www.w3.org/1999/xlink"><path d="M992 64v320H32V64h960z m-32 32H64v256h896V96z" fill="#646E7F" p-id="29056"></path><path d="M960 672h32V352H32v320h320v-32H64v-256h896v288z" fill="#646E7F" p-id="29057"></path><path d="M32 640v320h960V640H32z m32 32h896v256H64v-256zM992 64v320H672V64h320z m-32 32h-256v256h256V96z" fill="#646E7F" p-id="29058"></path><path d="M352 352v608H32V352h320z m-32 32H64v544h256V384zM768 192h128l-64 88.64zM448 492.32h416v32H448zM448 780.32h416v32H448z" fill="#646E7F" p-id="29059"></path><path d="M64 384h256v256H64z" fill="#00C296" p-id="29060"></path><path d="M267.36 436.736l22.72 22.528-122.592 123.744-74.176-78.496 23.264-21.952 51.424 54.4z" fill="#FFFFFF" p-id="29061"></path><path d="M64 672h256v256H64z" fill="#00C296" p-id="29062"></path><path d="M267.36 724.736l22.72 22.528-122.592 123.744-74.176-78.496 23.264-21.952 51.424 54.4z" fill="#FFFFFF" p-id="29063"></path></svg>