<?xml version="1.0" standalone="no"?><!DOCTYPE svg PUBLIC "-//W3C//DTD SVG 1.1//EN" "http://www.w3.org/Graphics/SVG/1.1/DTD/svg11.dtd"><svg t="1698915537470" class="icon" viewBox="0 0 1024 1024" version="1.1" xmlns="http://www.w3.org/2000/svg" p-id="4048" width="64" height="64" xmlns:xlink="http://www.w3.org/1999/xlink"><path d="M443.264 609.450667c4.736-25.813333 13.226667-50.432 24.832-73.130667H268.16a73.088 73.088 0 0 0-73.130667 73.173333v146.261334a73.130667 73.130667 0 0 0 73.130667 73.173333h231.978667a267.946667 267.946667 0 0 1-43.008-73.173333H268.16v-146.261334h175.104zM807.509333 167.68a73.130667 73.130667 0 0 0-51.712-21.418667H170.624a73.130667 73.130667 0 0 0-73.130667 73.130667v146.304A73.130667 73.130667 0 0 0 170.666667 438.826667h382.165333a266.922667 266.922667 0 0 1 154.24-48.768 267.136 267.136 0 0 1 105.642667 21.632 72.96 72.96 0 0 0 16.256-45.994667V219.392c0-19.413333-7.68-37.973333-21.418667-51.712zM170.624 219.392h585.173333v146.304H170.624V219.392z" fill="#000000" fill-opacity=".85" p-id="4049"></path><path d="M489.770667 663.808a218.581333 218.581333 0 1 0 437.12 0 218.581333 218.581333 0 0 0-437.12 0z" fill="#0078FF" p-id="4050"></path><path d="M733.738667 646.570667v-112.213334h-42.666667v112.213334h-112.213333v42.666666h112.213333v112.213334h42.666667v-112.213334h112.213333v-42.666666h-112.213333z" fill="#FFFFFF" p-id="4051"></path></svg>