<?xml version="1.0" standalone="no"?><!DOCTYPE svg PUBLIC "-//W3C//DTD SVG 1.1//EN" "http://www.w3.org/Graphics/SVG/1.1/DTD/svg11.dtd"><svg t="1700033265879" class="icon" viewBox="0 0 1024 1024" version="1.1" xmlns="http://www.w3.org/2000/svg" p-id="29791" width="64" height="64" xmlns:xlink="http://www.w3.org/1999/xlink"><path d="M1023.120573 537.776595A511.434536 511.434536 0 0 1 789.912256 941.882018a12.567812 12.567812 0 0 1-17.74575-4.273056l-113.83924-197.188969a12.567812 12.567812 0 0 1 0-12.567811l113.713562-197.013019a12.567812 12.567812 0 0 1 10.883725-6.283906h227.653344a12.567812 12.567812 0 0 1 12.542676 13.221338z" fill="#FF901F" p-id="29792"></path><path d="M1010.552762 499.419633h-227.653345a12.567812 12.567812 0 0 1-10.883725-6.283906l-113.713562-196.987883a12.567812 12.567812 0 0 1 0-12.567812l113.83924-197.214104a12.567812 12.567812 0 0 1 17.745751-4.273056 511.434536 511.434536 0 0 1 233.233452 404.105423 12.567812 12.567812 0 0 1-12.567811 13.221338z" fill="#FFC65F" p-id="29793"></path><path d="M750.399056 73.77298L636.584951 271.01222a12.567812 12.567812 0 0 1-10.883725 6.283906h-227.552802a12.567812 12.567812 0 0 1-10.883725-6.283906l-113.864375-197.23924a12.567812 12.567812 0 0 1 5.027125-17.594936 512.766724 512.766724 0 0 1 466.718261 0 12.567812 12.567812 0 0 1 5.253346 17.594936z" fill="#00B3E5" p-id="29794"></path><path d="M365.497249 296.147844l-113.713562 196.987883a12.567812 12.567812 0 0 1-10.883725 6.283906H13.221482a12.567812 12.567812 0 0 1-12.567811-13.221338A511.434536 511.434536 0 0 1 233.912259 82.092872a12.567812 12.567812 0 0 1 17.74575 4.273056l113.83924 197.214104a12.567812 12.567812 0 0 1 0 12.567812zM365.497249 740.419993L251.658009 937.659233a12.567812 12.567812 0 0 1-17.74575 4.273056A511.434536 511.434536 0 0 1 0.653671 537.776595a12.567812 12.567812 0 0 1 12.567811-13.221338h227.67848a12.567812 12.567812 0 0 1 10.883725 6.283906l113.713562 197.013019a12.567812 12.567812 0 0 1 0 12.567811z" fill="#005581" p-id="29795"></path><path d="M750.399056 950.227045a12.567812 12.567812 0 0 1-5.027125 17.594936 512.766724 512.766724 0 0 1-466.718262 0 12.567812 12.567812 0 0 1-5.027125-17.594936l113.864376-197.214104a12.567812 12.567812 0 0 1 10.883725-6.283906h227.502531a12.567812 12.567812 0 0 1 10.883725 6.283906z" fill="#EE4B51" p-id="29796"></path></svg>