<?xml version="1.0" standalone="no"?><!DOCTYPE svg PUBLIC "-//W3C//DTD SVG 1.1//EN" "http://www.w3.org/Graphics/SVG/1.1/DTD/svg11.dtd"><svg t="1698315958561" class="icon" viewBox="0 0 1024 1024" version="1.1" xmlns="http://www.w3.org/2000/svg" p-id="13003" width="64" height="64" xmlns:xlink="http://www.w3.org/1999/xlink"><path d="M413 606m-348 0a348 348 0 1 0 696 0 348 348 0 1 0-696 0Z" fill="#C9F4EB" p-id="13004"></path><path d="M695.14 574H328.86a25 25 0 0 1 0-50h366.28a25 25 0 0 1 0 50z" fill="#087E6A" p-id="13005"></path><path d="M762.15 958.72h-500.3a125.14 125.14 0 0 1-125-125V190a125.14 125.14 0 0 1 125-125h500.3a125.14 125.14 0 0 1 125 125v643.72a125.14 125.14 0 0 1-125 125zM261.85 115a75.09 75.09 0 0 0-75 75v643.72a75.09 75.09 0 0 0 75 75h500.3a75.09 75.09 0 0 0 75-75V190a75.09 75.09 0 0 0-75-75z" fill="#087E6A" p-id="13006"></path><path d="M670.05 267a25 25 0 0 1-25-25v-73.78a25 25 0 0 1 50 0V242a25 25 0 0 1-25 25z" fill="#087E6A" p-id="13007"></path><path d="M652.54 346H371.46a125.14 125.14 0 0 1-125-125V90a25 25 0 0 1 25-25h481.08a25 25 0 0 1 25 25v131a125.14 125.14 0 0 1-125 125zM296.46 115v106a75.09 75.09 0 0 0 75 75h281.08a75.09 75.09 0 0 0 75-75V115z" fill="#087E6A" p-id="13008"></path></svg>