<?xml version="1.0" standalone="no"?><!DOCTYPE svg PUBLIC "-//W3C//DTD SVG 1.1//EN" "http://www.w3.org/Graphics/SVG/1.1/DTD/svg11.dtd"><svg t="1698315639244" class="icon" viewBox="0 0 1280 1024" version="1.1" xmlns="http://www.w3.org/2000/svg" p-id="11005" width="80" height="64" xmlns:xlink="http://www.w3.org/1999/xlink"><path d="M1032.2816 870.784c0 15.5008-13.6576 28.0192-30.5152 28.0192h-744.832c-16.8832 0-30.5408-12.5312-30.5408-28.0192V187.4688c0-15.488 13.6576-28.0192 30.5408-28.0192h744.8448c16.8448 0 30.5152 12.5312 30.5152 28.0192V870.784z" fill="#B3B3B3" p-id="11006"></path><path d="M1032.2816 831.8848c0 15.36-13.6576 27.84-30.5152 27.84h-744.832c-16.8832 0-30.5408-12.48-30.5408-27.84V153.0112c0-15.3728 13.6576-27.8272 30.5408-27.8272h744.8448c16.8448 0 30.5152 12.4544 30.5152 27.8272v678.8736z" fill="#E5E7E6" p-id="11007"></path><path d="M1032.2816 153.0112c0-15.3728-13.6576-27.8272-30.5152-27.8272h-744.832c-16.8832 0-30.5408 12.4544-30.5408 27.8272v65.9072h805.9008v-65.9072z" fill="#CCD0D3" p-id="11008"></path><path d="M903.7696 172.0576m-21.9392 0a21.9392 21.9392 0 1 0 43.8784 0 21.9392 21.9392 0 1 0-43.8784 0Z" fill="#FFFFFF" p-id="11009"></path><path d="M973.824 172.0576m-21.9392 0a21.9392 21.9392 0 1 0 43.8784 0 21.9392 21.9392 0 1 0-43.8784 0Z" fill="#FFFFFF" p-id="11010"></path><path d="M289.5104 264.2048h315.8144v304.0512H289.5104z" fill="#23B08D" p-id="11011"></path><path d="M289.5104 612.7744h679.68v181.44h-679.68z" fill="#CCCCCC" p-id="11012"></path><path d="M653.3632 264.2048h315.8272v304.0512H653.3632z" fill="#29ABE2" p-id="11013"></path><path d="M587.9168 299.0336l-5.76-5.7856v3.9552h-7.872v-7.872h3.9296l-5.76-5.7984-5.7472 5.7984h3.9424v7.872h-7.8976v-3.9552l-5.7472 5.7856 5.7472 5.7856v-3.9424h7.872v7.8592h-3.9296l5.76 5.76 5.76-5.76h-3.9552v-7.8592h7.8976v3.9424l5.76-5.7856z" fill="#B1EFDD" p-id="11014"></path><path d="M946.2272 299.0336l-5.76-5.7856v3.9552h-7.8592v-7.872h3.9296l-5.7728-5.7984-5.7344 5.7984h3.9424v7.872h-7.8848v-3.9552l-5.76 5.7856 5.76 5.7856v-3.9424h7.8592v7.8592h-3.9296l5.7472 5.76 5.7728-5.76h-3.9552v-7.8592h7.8848v3.9424l5.76-5.7856z" fill="#AAD6F2" p-id="11015"></path><path d="M946.2272 644.5184l-5.76-5.7856v3.968h-7.8592v-7.872h3.9296l-5.7728-5.7856-5.7344 5.7856h3.9424v7.872h-7.8848V638.72l-5.76 5.7856 5.76 5.7856v-3.9552h7.8592v7.8592h-3.9296l5.7472 5.76 5.7728-5.76h-3.9552v-7.8592h7.8848v3.9552l5.76-5.7728z" fill="#808080" p-id="11016"></path></svg>