<?xml version="1.0" standalone="no"?><!DOCTYPE svg PUBLIC "-//W3C//DTD SVG 1.1//EN" "http://www.w3.org/Graphics/SVG/1.1/DTD/svg11.dtd"><svg t="1698314462227" class="icon" viewBox="0 0 1024 1024" version="1.1" xmlns="http://www.w3.org/2000/svg" p-id="2073" width="64" height="64" xmlns:xlink="http://www.w3.org/1999/xlink"><path d="M0 0m0 0l1024 0q0 0 0 0l0 1024q0 0 0 0l-1024 0q0 0 0 0l0-1024q0 0 0 0Z" fill="#E8EFF8" p-id="2074"></path><path d="M279.272727 418.909091a46.545455 46.545455 0 0 0 46.545455 46.545454h234.961454c37.934545 0 59.927273-42.961455 37.771637-73.751272l-67.025455-93.090909A46.545455 46.545455 0 0 0 493.754182 279.272727H325.818182a46.545455 46.545455 0 0 0-46.545455 46.545455v93.090909z" fill="#247ADE" p-id="2075"></path><path d="M139.636364 826.181818h721.454545V372.363636H384l-69.818182-162.909091H139.636364v616.727273z" fill="#9BB9EF" p-id="2076"></path></svg>