<?xml version="1.0" standalone="no"?><!DOCTYPE svg PUBLIC "-//W3C//DTD SVG 1.1//EN" "http://www.w3.org/Graphics/SVG/1.1/DTD/svg11.dtd"><svg t="1698314731136" class="icon" viewBox="0 0 1024 1024" version="1.1" xmlns="http://www.w3.org/2000/svg" p-id="2483" width="64" height="64" xmlns:xlink="http://www.w3.org/1999/xlink"><path d="M0 0m0 0l1024 0q0 0 0 0l0 1024q0 0 0 0l-1024 0q0 0 0 0l0-1024q0 0 0 0Z" fill="#E8EFF8" p-id="2484"></path><path d="M600.413091 172.544a46.545455 46.545455 0 0 1 65.815273 0l181.038545 181.015273a46.545455 46.545455 0 0 1 0 65.838545L419.374545 847.266909a46.545455 46.545455 0 0 1-65.838545 0l-181.015273-181.038545a46.545455 46.545455 0 0 1 0-65.815273L600.436364 172.544z" fill="#247ADE" p-id="2485"></path><path d="M861.090909 267.636364a104.727273 104.727273 0 1 1-209.454545 0 104.727273 104.727273 0 0 1 209.454545 0z" fill="#A0BFF7" p-id="2486"></path><path d="M186.181818 768a23.272727 23.272727 0 0 1 23.272727-23.272727h651.636364a23.272727 23.272727 0 0 1 23.272727 23.272727v69.818182a23.272727 23.272727 0 0 1-23.272727 23.272727H209.454545a23.272727 23.272727 0 0 1-23.272727-23.272727v-69.818182z" fill="#69CB91" p-id="2487"></path></svg>