<?xml version="1.0" standalone="no"?><!DOCTYPE svg PUBLIC "-//W3C//DTD SVG 1.1//EN" "http://www.w3.org/Graphics/SVG/1.1/DTD/svg11.dtd"><svg t="1699429815977" class="icon" viewBox="0 0 1024 1024" version="1.1" xmlns="http://www.w3.org/2000/svg" p-id="19020" width="64" height="64" xmlns:xlink="http://www.w3.org/1999/xlink"><path d="M943.07 438.12C898.57 242.22 723.36 96 514 96a438.1 438.1 0 0 0-271.77 94 16 16 0 0 1-21.23-1.28l-84-83.87c-15.18-15.09-41-4.37-41 16.99V416a64 64 0 0 0 64 64h295c21.4 0 32.1-25.88 17-41l-94.08-93.86a16 16 0 0 1 0.3-22.95A302.91 302.91 0 0 1 586 240c137.14 0 253 90.81 290.92 215.58A34.3 34.3 0 0 0 909.7 480a34.25 34.25 0 0 0 33.37-41.88zM80.93 585.88C125.43 781.78 300.64 928 510 928a438.1 438.1 0 0 0 271.77-94 16 16 0 0 1 21.23 1.28l84.07 83.87c15.13 15.09 41 4.37 41-17V608a64 64 0 0 0-64-64H569c-21.4 0-32.1 25.88-16.95 41l94.08 93.86a16 16 0 0 1-0.3 22.95A302.91 302.91 0 0 1 438 784c-137.14 0-253-90.81-290.92-215.58A34.3 34.3 0 0 0 114.3 544a34.25 34.25 0 0 0-33.37 41.88z" fill="#BABABA" p-id="19021"></path></svg>