<?xml version="1.0" standalone="no"?><!DOCTYPE svg PUBLIC "-//W3C//DTD SVG 1.1//EN" "http://www.w3.org/Graphics/SVG/1.1/DTD/svg11.dtd"><svg t="1701055358986" class="icon" viewBox="0 0 1024 1024" version="1.1" xmlns="http://www.w3.org/2000/svg" p-id="31345" width="64" height="64" xmlns:xlink="http://www.w3.org/1999/xlink"><path d="M514 912c-219.9 0-398.8-178.9-398.8-398.8S294.1 114.3 514 114.3s398.9 178.9 398.9 398.9C912.8 733.1 733.9 912 514 912z m0-701.5c-166.9 0-302.7 135.8-302.7 302.7S347.1 815.9 514 815.9s302.7-135.8 302.7-302.7S680.9 210.5 514 210.5z" fill="#D0D0D0" p-id="31346"></path><path d="M514 705.9m-62.1 0a62.1 62.1 0 1 0 124.2 0 62.1 62.1 0 1 0-124.2 0Z" fill="#D0D0D0" p-id="31347"></path><path d="M562.1 605.5h-96.2V569c0-60.5 49.2-109.7 109.7-109.7 7.5 0 13.6-6.1 13.6-13.6v-60.5c0-7.5-6.1-13.6-13.6-13.6H452.4c-7.5 0-13.6 6.1-13.6 13.6v57.6h-96.2v-57.6c0-60.5 49.2-109.7 109.7-109.7h123.3c60.5 0 109.7 49.2 109.7 109.7v60.5c0 60.5-49.2 109.7-109.7 109.7-7.5 0-13.6 6.1-13.6 13.6v36.5z" fill="#D0D0D0" p-id="31348"></path></svg>