<?xml version="1.0" standalone="no"?><!DOCTYPE svg PUBLIC "-//W3C//DTD SVG 1.1//EN" "http://www.w3.org/Graphics/SVG/1.1/DTD/svg11.dtd"><svg t="1701236516528" class="icon" viewBox="0 0 1024 1024" version="1.1" xmlns="http://www.w3.org/2000/svg" p-id="18053" width="64" height="64" xmlns:xlink="http://www.w3.org/1999/xlink"><path d="M957.411556 385.564444L655.288889 83.427556c-7.722667-7.822222-28.216889-28.600889-55.296-28.600889-18.503111 0-43.832889 9.244444-59.648 54.485333-23.352889 77.553778-61.240889 201.827556-70.656 228.721778L69.191111 710.385778c-17.408 17.408-26.595556 42.766222-25.187555 69.617778 1.322667 25.287111 11.847111 49.564444 28.885333 66.616888l95.857778 95.857778c17.208889 17.223111 40.334222 26.695111 65.109333 26.695111 24.888889 0 49.166222-10.026667 65.877333-26.723555L701.297778 569.088c20.224-8.661333 127.971556-44.686222 223.473778-75.633778 1.564444-0.497778 3.100444-1.152 4.551111-1.934222 23.864889-12.643556 46.478222-27.847111 50.275555-53.248 3.996444-26.524444-15.715556-46.236444-22.186666-52.707556zM260.252444 901.461333a37.504 37.504 0 0 1-26.396444 10.823111 34.844444 34.844444 0 0 1-24.888889-10.055111l-95.857778-95.857777c-7.111111-7.111111-11.704889-18.062222-12.302222-29.340445-0.554667-10.737778 2.588444-20.366222 7.864889-25.671111l400.071111-371.968L659.555556 530.204444 260.252444 901.461333z m644.551112-461.340444c-140.401778 45.496889-196.679111 65.123556-220.430223 74.666667L523.975111 354.375111c8.817778-24.462222 26.752-82.190222 70.456889-227.456 2.915556-8.334222 5.546667-12.544 7.068444-14.492444 2.304 1.152 6.428444 4.010667 13.312 10.951111 0.028444 0.056889 0.967111 1.009778 1.024 1.052444l301.340445 301.354667c1.692444 1.664 2.944 3.072 3.854222 4.209778-2.759111 2.161778-7.637333 5.475556-16.227555 10.126222z" fill="" p-id="18054"></path><path d="M656.170667 204.970667c-10.808889-10.794667-20.878222-11.264-27.420445-9.784889-10.865778 2.488889-19.2 11.761778-24.718222 27.534222a11.648 11.648 0 0 0-0.469333 1.706667c-7.608889 35.214222-16.412444 74.410667-18.474667 81.109333a14.193778 14.193778 0 0 0 12.942222 20.124444c3.612444 0 7.253333-1.365333 10.012445-4.124444 3.740444-3.697778 4.622222-4.579556 23.096889-90.197333 1.393778-3.740444 2.716444-6.087111 3.655111-7.409778a12.088889 12.088889 0 0 1 1.265777 1.152l23.722667 23.722667a14.208 14.208 0 1 0 20.110222-20.110223l-23.722666-23.722666zM710.058667 258.872889a14.208 14.208 0 1 0-20.110223 20.110222l10.055112 10.055111a14.179556 14.179556 0 0 0 20.110222 0 14.208 14.208 0 0 0 0-20.110222l-10.055111-10.055111zM840.789333 216.931556a28.302222 28.302222 0 0 0 20.110223-8.334223l20.096-20.110222a28.444444 28.444444 0 0 0-40.206223-40.220444l-20.110222 20.110222a28.444444 28.444444 0 0 0 20.110222 48.554667zM760.334222 136.490667c7.281778 0 14.549333-2.787556 20.110222-8.334223l20.110223-20.124444a28.472889 28.472889 0 0 0-0.014223-40.234667 28.458667 28.458667 0 0 0-40.220444 0.014223l-20.110222 20.124444a28.472889 28.472889 0 0 0 20.124444 48.554667zM921.244444 297.372444c7.281778 0 14.549333-2.773333 20.110223-8.334222l20.110222-20.110222a28.444444 28.444444 0 1 0-40.220445-40.220444l-20.110222 20.110222a28.444444 28.444444 0 0 0 20.110222 48.554666zM524.330667 511.729778c-10.666667-10.666667-29.582222-10.524444-40.248889 0a28.686222 28.686222 0 0 0 0 40.248889c5.418667 5.276444 12.672 8.248889 20.209778 8.248889 7.395556 0 14.776889-2.972444 20.039111-8.248889 5.248-5.390222 8.405333-12.672 8.405333-20.195556 0-7.395556-3.157333-14.791111-8.405333-20.053333z" fill="" p-id="18055"></path></svg>