<?xml version="1.0" standalone="no"?><!DOCTYPE svg PUBLIC "-//W3C//DTD SVG 1.1//EN" "http://www.w3.org/Graphics/SVG/1.1/DTD/svg11.dtd"><svg t="1701685050383" class="icon" viewBox="0 0 1024 1024" version="1.1" xmlns="http://www.w3.org/2000/svg" p-id="5812" width="64" height="64" xmlns:xlink="http://www.w3.org/1999/xlink"><path d="M235.52 308.736l58.88-58.368-75.776-75.776-62.464 62.976L235.52 308.736z m234.496-113.152h83.968V74.24H470.016v121.344zM176.64 488.96H51.2v83.968h125.44V488.96z m460.8 259.584c75.264-41.984 125.44-125.44 125.44-217.6 0-138.24-113.152-251.392-251.392-251.392s-251.392 113.152-251.392 251.392c0 92.16 50.176 176.128 125.44 217.6v201.216h251.392v-201.216m210.432-175.616H972.8V488.96h-125.44v83.968zM788.48 308.736l75.264-75.264-58.88-58.368-75.264 75.264L788.48 308.736z" p-id="5813" fill="#707070"></path></svg>