<?xml version="1.0" standalone="no"?><!DOCTYPE svg PUBLIC "-//W3C//DTD SVG 1.1//EN" "http://www.w3.org/Graphics/SVG/1.1/DTD/svg11.dtd"><svg t="1698918473174" class="icon" viewBox="0 0 1024 1024" version="1.1" xmlns="http://www.w3.org/2000/svg" p-id="33379" width="64" height="64" xmlns:xlink="http://www.w3.org/1999/xlink"><path d="M874.956619 740.096142h-127.334337a111.923144 111.923144 0 0 0-111.820744 109.260745c-86.169557-4.607998-159.59032-25.087987-218.572691-61.132769a345.190227 345.190227 0 0 1-113.868743-114.022343 127.590336 127.590336 0 0 0 112.332744-110.540745h219.135891a112.025544 112.025544 0 0 0 109.158345 87.705556h127.334336a111.923144 111.923144 0 0 0 111.820744-111.820744V485.888269a111.923144 111.923144 0 0 0-111.820744-111.820744h-127.334336a111.974344 111.974344 0 0 0-110.745545 96.409552H415.948848a127.590336 127.590336 0 0 0-113.663943-112.998344 344.729428 344.729428 0 0 1 114.943942-115.916742c58.623971-35.737582 131.532734-56.217572 216.985492-61.030369a111.974344 111.974344 0 0 0 110.796744 96.767951h127.385537a111.923144 111.923144 0 0 0 111.769544-111.820744V111.821256A111.923144 111.923144 0 0 0 872.34542 0.000512h-127.334337a111.974344 111.974344 0 0 0-109.055945 87.142356c-103.935948 4.915198-193.689503 30.054385-267.263866 74.905563-74.547163 45.465577-132.249534 110.847945-171.929514 194.764703H127.385792A127.487936 127.487936 0 0 0 0.000256 484.14747v63.436768a127.487936 127.487936 0 0 0 127.385536 127.385537h70.348765c39.67998 82.943959 97.075151 147.711926 171.007915 192.819103 75.007962 45.772777 166.911917 71.014364 273.510263 75.161563a112.025544 112.025544 0 0 0 105.369547 74.444762h127.334337a111.923144 111.923144 0 0 0 111.820744-111.820744v-53.657573a111.923144 111.923144 0 0 0-111.820744-111.820744zM726.374293 111.821256c0-10.291195 8.345596-18.636791 18.63679-18.636791h127.334337c10.291195 0 18.636791 8.345596 18.636791 18.636791v53.657573c0 10.239995-8.345596 18.585591-18.636791 18.585591h-127.334337a18.636791 18.636791 0 0 1-18.63679-18.585591V111.821256z m-1.024 374.067013c0-10.239995 8.345596-18.636791 18.636791-18.636791h127.334336c10.291195 0 18.636791 8.345596 18.636791 18.636791v53.657573c0 10.239995-8.345596 18.636791-18.636791 18.636791h-127.334336a18.636791 18.636791 0 0 1-18.636791-18.636791V485.888269zM93.184209 547.584238V484.19867c0-18.892791 15.359992-34.201583 34.252783-34.201583H289.280111c18.841591 0 34.150383 15.308792 34.150383 34.150383v63.436768a34.201583 34.201583 0 0 1-34.150383 34.201583H127.385792a34.252783 34.252783 0 0 1-34.252783-34.201583z m800.4604 357.939021c0 10.291195-8.345596 18.636791-18.636791 18.636791h-127.334336a18.636791 18.636791 0 0 1-18.636791-18.636791V851.968086c0-10.291195 8.345596-18.636791 18.636791-18.636791h127.334336c10.239995 0 18.636791 8.345596 18.636791 18.636791v53.606373z" fill="#666666" p-id="33380"></path></svg>