<?xml version="1.0" standalone="no"?><!DOCTYPE svg PUBLIC "-//W3C//DTD SVG 1.1//EN" "http://www.w3.org/Graphics/SVG/1.1/DTD/svg11.dtd"><svg t="1700122989944" class="icon" viewBox="0 0 1024 1024" version="1.1" xmlns="http://www.w3.org/2000/svg" p-id="28473" width="64" height="64" xmlns:xlink="http://www.w3.org/1999/xlink"><path d="M709.3 895.94H314.7c-102.91 0-186.64-83.72-186.64-186.64V314.7c0-102.92 83.73-186.64 186.64-186.64h394.6c102.91 0 186.64 83.72 186.64 186.64v394.6c0 102.92-83.73 186.64-186.64 186.64zM314.7 160.05c-85.27 0-154.64 69.36-154.64 154.64v394.6c0 85.28 69.37 154.64 154.64 154.64h394.6c85.27 0 154.64-69.36 154.64-154.64V314.7c0-85.28-69.37-154.64-154.64-154.64H314.7z" fill="#333333" p-id="28474"></path><path d="M216.73 355.52c-8.83 0-16-7.17-16-16v-39.01c0-55.87 45.45-101.32 101.32-101.32h81.7c8.83 0 16 7.17 16 16s-7.17 16-16 16h-81.7c-38.22 0-69.32 31.1-69.32 69.32v39.01c0 8.84-7.16 16-16 16z" fill="#333333" p-id="28475"></path><path d="M310.61 506.67c-41.16 0-74.65-33.49-74.65-74.65s33.49-74.65 74.65-74.65 74.65 33.49 74.65 74.65-33.48 74.65-74.65 74.65z m0-117.32c-23.53 0-42.66 19.14-42.66 42.66 0 23.52 19.13 42.66 42.66 42.66 23.53 0 42.66-19.14 42.66-42.66 0-23.51-19.13-42.66-42.66-42.66zM512 506.67c-41.16 0-74.65-33.49-74.65-74.65s33.49-74.65 74.65-74.65 74.66 33.49 74.66 74.65-33.5 74.65-74.66 74.65z m0-117.32c-23.53 0-42.66 19.14-42.66 42.66 0 23.52 19.13 42.66 42.66 42.66s42.66-19.14 42.66-42.66c0-23.51-19.13-42.66-42.66-42.66zM713.4 506.67c-41.16 0-74.66-33.49-74.66-74.65s33.49-74.65 74.66-74.65c41.16 0 74.65 33.49 74.65 74.65s-33.49 74.65-74.65 74.65z m0-117.32c-23.53 0-42.66 19.14-42.66 42.66 0 23.52 19.13 42.66 42.66 42.66 23.53 0 42.66-19.14 42.66-42.66 0-23.51-19.14-42.66-42.66-42.66z" fill="#0CC1BC" p-id="28476"></path><path d="M310.61 709.3c-41.16 0-74.65-33.49-74.65-74.65 0-41.16 33.49-74.66 74.65-74.66s74.65 33.49 74.65 74.66c0.01 41.16-33.48 74.65-74.65 74.65z m0-117.31c-23.53 0-42.66 19.14-42.66 42.66s19.13 42.66 42.66 42.66c23.53 0 42.66-19.14 42.66-42.66s-19.13-42.66-42.66-42.66zM512 709.3c-41.16 0-74.65-33.49-74.65-74.65 0-41.16 33.49-74.66 74.65-74.66s74.66 33.49 74.66 74.66c0 41.16-33.5 74.65-74.66 74.65z m0-117.31c-23.53 0-42.66 19.14-42.66 42.66s19.13 42.66 42.66 42.66 42.66-19.14 42.66-42.66-19.13-42.66-42.66-42.66zM713.4 709.3c-41.16 0-74.66-33.49-74.66-74.65 0-41.16 33.49-74.66 74.66-74.66 41.16 0 74.65 33.49 74.65 74.66 0 41.16-33.49 74.65-74.65 74.65z m0-117.31c-23.53 0-42.66 19.14-42.66 42.66s19.13 42.66 42.66 42.66c23.53 0 42.66-19.14 42.66-42.66s-19.14-42.66-42.66-42.66z" fill="#0CC1BC" p-id="28477"></path></svg>